# xmcd
#
# Track frame offsets:
#	150
#	9339
#	21115
#	41372
#	61502
#	82774
#	98627
#	105907
#	122033
#	140036
#	163055
#	181046
#	203186
#	223552
#	239806
#	263765
#	282950
#	312504
#
# Disc length: 4452 seconds
#
# Revision: 2
# Processed by: cddbd v1.5.2PL0 Copyright (c) Steve Scherf et al.
# Submitted via: audiograbber 1.83.01
#
DISCID=ea116212
DTITLE=Freddie Foxxx - Konexion
DYEAR=2003
DGENRE=Hip-Hop
TTITLE0=Freddie Foxxx - Interview
TTITLE1=Freddie Foxxx - Drop A Jewel
TTITLE2=Freddie Foxxx - PAINE (Pressure At Industry Expense)
TTITLE3=Freddie Foxxx - Swazzee
TTITLE4=Freddie Foxxx - Poetry
TTITLE5=Freddie Foxxx - Step Up
TTITLE6=Freddie Foxxx, Janah - Angel
TTITLE7=Freddie Foxxx - Konexion
TTITLE8=Freddie Foxxx - Mega Bomb Dropper
TTITLE9=Freddie Foxxx, Bridget - Tell Me
TTITLE10=Freddie Foxxx - Me!
TTITLE11=Freddie Foxxx - No I Ain't With It
TTITLE12=Freddie Foxxx - Lazy!
TTITLE13=Freddie Foxxx - Stick'em Up
TTITLE14=Freddie Foxxx, Tayshine - Aim Cock Spit
TTITLE15=Freddie Foxxx - Gangsta's Again
TTITLE16=Freddie Foxxx, Khadejia - When The Angels Sing
TTITLE17=Freddie Foxxx - New Millenium
EXTD=www.RapMusicGuide.com
EXTT0=
EXTT1=
EXTT2=
EXTT3=
EXTT4=
EXTT5=
EXTT6=
EXTT7=
EXTT8=
EXTT9=
EXTT10=
EXTT11=
EXTT12=
EXTT13=
EXTT14=
EXTT15=
EXTT16=
EXTT17=
PLAYORDER=
